<svg width="1920" height="652" viewBox="0 0 1920 652" fill="none" xmlns="http://www.w3.org/2000/svg">
<g clip-path="url(#clip0_1409_27)">
<path d="M1920 278.255C1946.61 300.791 1963.5 334.424 1963.5 372C1963.5 409.576 1946.61 443.208 1920 465.744C1893.39 443.208 1876.5 409.576 1876.5 372C1876.5 334.424 1893.39 300.791 1920 278.255Z" fill="#007FFF" stroke="#2C2A29" stroke-width="5"/>
<path d="M1694.01 416.147C1700.11 434.708 1714.54 449.328 1732.97 455.695L1733.85 455.992L1743 459L1733.85 462.008C1715.29 468.112 1700.67 482.537 1694.3 500.972L1694.01 501.853L1691 510.997L1687.99 501.853C1681.89 483.292 1667.46 468.672 1649.03 462.305L1648.15 462.008L1639 459L1648.15 455.992C1666.71 449.888 1681.33 435.463 1687.7 417.028L1687.99 416.147L1691 407.002L1694.01 416.147Z" fill="#6ebaff" stroke="#2C2A29" stroke-width="5"/>
<path d="M1496.5 473.5C1598.94 473.5 1682.15 556.092 1683.48 658.5H1588.26C1586.94 608.834 1546.37 568.969 1496.5 568.969C1446.63 568.969 1406.06 608.834 1404.74 658.5H1309.52C1310.85 556.092 1394.06 473.5 1496.5 473.5Z" fill="#007FFF" stroke="#2C2A29" stroke-width="5"/>
<path d="M1825.5 476.5C1875.87 476.5 1916.67 515.622 1917.49 564.018L1917.5 564.76V654.5H1733.5V564.76L1733.51 564.018C1734.33 515.622 1775.13 476.5 1825.5 476.5Z" fill="#007FFF" stroke="#2C2A29" stroke-width="5"/>
<path d="M1082.48 564.786C1094.54 601.462 1123.05 630.352 1159.47 642.934L1161.21 643.521L1187 652L1161.21 660.479C1124.54 672.542 1095.65 701.047 1083.07 737.474L1082.48 739.214L1074 764.997L1065.52 739.214C1053.46 702.538 1024.95 673.648 988.526 661.066L986.786 660.479L961.002 652L986.786 643.521C1023.46 631.458 1052.35 602.953 1064.93 566.526L1065.52 564.786L1074 539.002L1082.48 564.786Z" fill="#007FFF" stroke="#2C2A29" stroke-width="5"/>
<path d="M920.5 533.5C874.944 533.5 837.86 569.765 836.538 615L920.5 615C966.056 615 1003.14 578.736 1004.46 533.5L920.5 533.5Z" fill="#007FFF" stroke="#2C2A29" stroke-width="5"/>
<path d="M1135.64 533.645C1153.43 532.456 1171.6 538.657 1185.19 552.245C1198.78 565.833 1204.98 584.008 1203.79 601.791C1186.01 602.979 1167.83 596.779 1154.25 583.191C1140.66 569.603 1134.46 551.428 1135.64 533.645Z" fill="#6ebaff" stroke="#2C2A29" stroke-width="5"/>
<path d="M1224.07 552.245C1237.66 538.657 1255.83 532.456 1273.61 533.645C1274.8 551.428 1268.6 569.603 1255.01 583.191C1241.43 596.78 1223.25 602.979 1205.47 601.791C1204.28 584.008 1210.48 565.833 1224.07 552.245Z" fill="#6ebaff" stroke="#2C2A29" stroke-width="5"/>
<circle cx="752" cy="580" r="35.5" fill="#007FFF" stroke="#2C2A29" stroke-width="5"/>
<circle cx="1788" cy="372" r="35.5" fill="#007FFF" stroke="#2C2A29" stroke-width="5"/>
<path d="M1203 432.281C1214.96 442.821 1222.5 458.247 1222.5 475.436C1222.5 492.624 1214.96 508.048 1203 518.588C1191.04 508.048 1183.5 492.624 1183.5 475.436C1183.5 458.247 1191.04 442.821 1203 432.281Z" fill="#007FFF" stroke="#2C2A29" stroke-width="5"/>
<path d="M617 599.5C647.919 599.5 673.136 623.903 674.445 654.5H559.555C560.864 623.903 586.081 599.5 617 599.5Z" fill="#007FFF" stroke="#2C2A29" stroke-width="5"/>
</g>
<defs>
<clipPath id="clip0_1409_27">
<rect width="1920" height="652" fill="white"/>
</clipPath>
</defs>
</svg>
