<svg width="121" height="120" viewBox="0 0 121 120" fill="none" xmlns="http://www.w3.org/2000/svg">
<path d="M118.081 117.393C103.105 118.417 87.79 113.207 76.3458 101.763C64.9016 90.3185 59.6915 75.0033 60.7159 60.0273C75.6918 59.003 91.0071 64.2131 102.451 75.6572C113.895 87.1015 119.106 102.417 118.081 117.393Z" fill="#007FFF" stroke="black" stroke-width="4"/>
<path d="M43.863 101.763C32.4188 113.207 17.1035 118.417 2.12762 117.393C1.10304 102.416 6.31318 87.1016 17.7575 75.6572C29.2018 64.2129 44.5167 59.0028 59.4929 60.0273C60.5172 75.0032 55.3071 90.3186 43.863 101.763Z" fill="#0099FF" stroke="black" stroke-width="4"/>
<path d="M43.863 17.7568C32.4188 6.3127 17.1035 1.10259 2.12762 2.12696C1.10304 17.1031 6.31319 32.418 17.7575 43.8623C29.2018 55.3066 44.5167 60.5168 59.4929 59.4922C60.5172 44.5163 55.3071 29.201 43.863 17.7568Z" fill="#6ebaff" stroke="black" stroke-width="4"/>
<path d="M118.081 2.12695C103.105 1.10239 87.79 6.31276 76.3458 17.7568C64.9016 29.201 59.6915 44.5163 60.7159 59.4922C75.6918 60.5166 91.0071 55.3065 102.451 43.8623C113.895 32.418 119.106 17.1029 118.081 2.12695Z" stroke="black" stroke-width="4"/>
</svg>
