<svg width="120" height="120" viewBox="0 0 120 120" fill="none" xmlns="http://www.w3.org/2000/svg">
<mask id="path-1-inside-1_1411_183" fill="white">
<path d="M75 23.7871L91.8203 6.9668L113.033 28.1807L96.2139 45H120V75H98.1934L114.172 89.8398L93.7568 111.822L75 94.4014V120H45V96.2139L28.1807 113.033L6.9668 91.8203L23.7871 75H0V45H21.8066L5.82812 30.1602L26.2441 8.17773L45 25.5967V0H75V23.7871Z"/>
</mask>
<path d="M75 23.7871L91.8203 6.9668L113.033 28.1807L96.2139 45H120V75H98.1934L114.172 89.8398L93.7568 111.822L75 94.4014V120H45V96.2139L28.1807 113.033L6.9668 91.8203L23.7871 75H0V45H21.8066L5.82812 30.1602L26.2441 8.17773L45 25.5967V0H75V23.7871Z" fill="#0099FF"/>
<path d="M75 23.7871H71V33.444L77.8284 26.6155L75 23.7871ZM91.8203 6.9668L94.6488 4.13843L91.8204 1.30988L88.9919 4.13837L91.8203 6.9668ZM113.033 28.1807L115.862 31.0091L118.69 28.1807L115.862 25.3523L113.033 28.1807ZM96.2139 45L93.3854 42.1716L86.557 49H96.2139V45ZM120 45H124V41H120V45ZM120 75V79H124V75H120ZM98.1934 75V71H88.0085L95.4713 77.9309L98.1934 75ZM114.172 89.8398L117.103 92.5618L119.825 89.6309L116.894 86.9089L114.172 89.8398ZM93.7568 111.822L91.0347 114.753L93.9657 117.475L96.6878 114.544L93.7568 111.822ZM75 94.4014L77.7221 91.4705L71 85.2271V94.4014H75ZM75 120V124H79V120H75ZM45 120H41V124H45V120ZM45 96.2139H49V86.557L42.1716 93.3854L45 96.2139ZM28.1807 113.033L25.3523 115.862L28.1807 118.69L31.0091 115.862L28.1807 113.033ZM6.9668 91.8203L4.13837 88.9919L1.30988 91.8204L4.13843 94.6488L6.9668 91.8203ZM23.7871 75L26.6155 77.8284L33.444 71H23.7871V75ZM0 75H-4V79H0V75ZM0 45V41H-4V45H0ZM21.8066 45V49H31.9915L24.5287 42.0691L21.8066 45ZM5.82812 30.1602L2.8972 27.4381L0.175119 30.369L3.10606 33.0911L5.82812 30.1602ZM26.2441 8.17773L28.9662 5.24678L26.0353 2.52477L23.3132 5.45566L26.2441 8.17773ZM45 25.5967L42.278 28.5276L49 34.7705V25.5967H45ZM45 0V-4H41V0H45ZM75 0H79V-4H75V0ZM75 23.7871L77.8284 26.6155L94.6487 9.79522L91.8203 6.9668L88.9919 4.13837L72.1716 20.9587L75 23.7871ZM91.8203 6.9668L88.9918 9.79516L110.205 31.009L113.033 28.1807L115.862 25.3523L94.6488 4.13843L91.8203 6.9668ZM113.033 28.1807L110.205 25.3522L93.3854 42.1716L96.2139 45L99.0423 47.8284L115.862 31.0091L113.033 28.1807ZM96.2139 45V49H120V45V41H96.2139V45ZM120 45H116V75H120H124V45H120ZM120 75V71H98.1934V75V79H120V75ZM98.1934 75L95.4713 77.9309L111.45 92.7708L114.172 89.8398L116.894 86.9089L100.915 72.0691L98.1934 75ZM114.172 89.8398L111.241 87.1178L90.8258 109.1L93.7568 111.822L96.6878 114.544L117.103 92.5618L114.172 89.8398ZM93.7568 111.822L96.479 108.891L77.7221 91.4705L75 94.4014L72.2779 97.3322L91.0347 114.753L93.7568 111.822ZM75 94.4014H71V120H75H79V94.4014H75ZM75 120V116H45V120V124H75V120ZM45 120H49V96.2139H45H41V120H45ZM45 96.2139L42.1716 93.3854L25.3522 110.205L28.1807 113.033L31.0091 115.862L47.8284 99.0423L45 96.2139ZM28.1807 113.033L31.009 110.205L9.79516 88.9918L6.9668 91.8203L4.13843 94.6488L25.3523 115.862L28.1807 113.033ZM6.9668 91.8203L9.79522 94.6487L26.6155 77.8284L23.7871 75L20.9587 72.1716L4.13837 88.9919L6.9668 91.8203ZM23.7871 75V71H0V75V79H23.7871V75ZM0 75H4V45H0H-4V75H0ZM0 45V49H21.8066V45V41H0V45ZM21.8066 45L24.5287 42.0691L8.55019 27.2292L5.82812 30.1602L3.10606 33.0911L19.0846 47.9309L21.8066 45ZM5.82812 30.1602L8.75905 32.8822L29.1751 10.8998L26.2441 8.17773L23.3132 5.45566L2.8972 27.4381L5.82812 30.1602ZM26.2441 8.17773L23.5221 11.1087L42.278 28.5276L45 25.5967L47.722 22.6657L28.9662 5.24678L26.2441 8.17773ZM45 25.5967H49V0H45H41V25.5967H45ZM45 0V4H75V0V-4H45V0ZM75 0H71V23.7871H75H79V0H75Z" fill="black" mask="url(#path-1-inside-1_1411_183)"/>
</svg>
